<?xml version="1.0" encoding="utf-8"?>
<!-- Generator: Adobe Illustrator 25.2.3, SVG Export Plug-In . SVG Version: 6.00 Build 0)  -->
<svg version="1.1" id="Layer_1" xmlns:xodm="http://www.corel.com/coreldraw/odm/2003"
	 xmlns="http://www.w3.org/2000/svg" xmlns:xlink="http://www.w3.org/1999/xlink" x="0px" y="0px" viewBox="0 0 352.1 352.1"
	 style="enable-background:new 0 0 352.1 352.1;" xml:space="preserve">
<style type="text/css">
	.st0{display:none;fill-rule:evenodd;clip-rule:evenodd;fill:url(#SVGID_1_);}
	.st1{display:none;fill:#161E25;}
	.st2{fill-rule:evenodd;clip-rule:evenodd;fill:url(#SVGID_2_);}
	.st3{fill-rule:evenodd;clip-rule:evenodd;fill:#161E25;}
	.st4{fill-rule:evenodd;clip-rule:evenodd;fill:#E3BEAD;}
	.st5{fill-rule:evenodd;clip-rule:evenodd;fill:#5C605D;}
	.st6{fill-rule:evenodd;clip-rule:evenodd;fill:#FFFFFF;}
</style>
<radialGradient id="SVGID_1_" cx="10388.4854" cy="-13658.5264" r="8603.6279" gradientTransform="matrix(2.830000e-02 0 0 -2.830000e-02 -117.9428 -227.5942)" gradientUnits="userSpaceOnUse">
	<stop  offset="0" style="stop-color:#8EB7F9"/>
	<stop  offset="0.4314" style="stop-color:#B96AD3"/>
	<stop  offset="1" style="stop-color:#4E3568"/>
</radialGradient>
<path class="st0" d="M176.1,5c94.5,0,171.1,76.6,171.1,171.1c0,94.5-76.6,171.1-171.1,171.1S5,270.5,5,176.1C5,81.6,81.6,5,176.1,5z
	"/>
<path class="st1" d="M176.1,0c48.6,0,92.6,19.7,124.5,51.6c31.9,31.9,51.6,75.9,51.6,124.5c0,48.6-19.7,92.6-51.6,124.5
	c-31.9,31.9-75.9,51.6-124.5,51.6c-48.6,0-92.6-19.7-124.5-51.6C19.7,268.7,0,224.7,0,176.1c0-48.6,19.7-92.6,51.6-124.5
	C83.4,19.7,127.4,0,176.1,0z M293.5,58.6C263.5,28.5,221.9,9.9,176.1,9.9c-45.9,0-87.4,18.6-117.5,48.7
	C28.5,88.6,9.9,130.2,9.9,176.1c0,45.9,18.6,87.4,48.7,117.5c30.1,30.1,71.6,48.7,117.5,48.7c45.9,0,87.4-18.6,117.5-48.7
	c30.1-30.1,48.7-71.6,48.7-117.5C342.2,130.2,323.6,88.6,293.5,58.6L293.5,58.6z"/>
<linearGradient id="SVGID_2_" gradientUnits="userSpaceOnUse" x1="10388.4629" y1="-19400.9922" x2="10388.5098" y2="-10357.7773" gradientTransform="matrix(2.830000e-02 0 0 -2.830000e-02 -117.9428 -227.5942)">
	<stop  offset="0" style="stop-color:#414F3D"/>
	<stop  offset="1" style="stop-color:#7C8B81"/>
</linearGradient>
<path class="st2" d="M65.7,119.8c2.3-12.5-1.5-20.1-1.5-20.1c-13.8-63.8,42.1-72.4,45.6-69.3c3.4,3.1-2.9,9.1-1,15.3
	c1.9,6.2,15.5,23.8,15.5,23.8c17.8-5,31.8-2.3,42.3,1.2c3,1,6.3,1.6,9.4,1.9c3.1-0.3,6.4-0.9,9.4-1.9c10.5-3.5,24.5-6.2,42.3-1.2
	c0,0,13.6-17.5,15.5-23.8c1.9-6.2-4.4-12.2-1-15.3c3.4-3.1,59.4,5.5,45.6,69.3c0,0-3.8,7.6-1.5,20.1c11.5,62.4,38.6,91.5-18.5,136.7
	c-18.4,14.6-26,17.7-33.3,31.6c-5.7,10.8-25.3,32.8-58.6,34.1c-33.3-1.3-52.9-23.3-58.6-34.1c-7.3-13.9-14.9-17-33.3-31.6
	C27.1,211.3,54.2,182.2,65.7,119.8z"/>
<path class="st3" d="M63,119.3c2.1-11.6-1.3-18.4-1.3-18.4l-0.2-0.3l-0.1-0.3c-6-27.6,0.7-45.3,10.8-56.5c4.3-4.8,9.3-8.3,14.1-10.9
	c4.9-2.6,9.6-4.1,13.6-5c5.7-1.2,10.3-0.8,11.7,0.4c3.1,2.8,2,6,0.8,9.7c-0.8,2.2-1.6,4.8-1,6.9c1.5,4.8,10.7,17.2,13.9,21.4
	c8.5-2.2,16.2-2.7,23-2.2c7.3,0.5,13.7,2.1,19.1,3.9c1.4,0.5,2.8,0.8,4.3,1.1c1.4,0.3,2.9,0.5,4.2,0.6c1.4-0.1,2.8-0.3,4.2-0.6
	c1.5-0.3,2.9-0.6,4.3-1.1c5.4-1.8,11.8-3.4,19.1-3.9c6.8-0.5,14.5,0,23,2.2c3.2-4.2,12.5-16.7,13.9-21.4c0.7-2.2-0.2-4.7-1-6.9
	c-1.3-3.7-2.3-6.8,0.8-9.7c1.3-1.2,5.9-1.7,11.7-0.4c3.9,0.9,8.7,2.4,13.6,5c4.8,2.5,9.8,6.1,14.1,10.9
	c10.1,11.1,16.8,28.9,10.8,56.5l-0.1,0.3l-0.2,0.3c0,0-3.4,6.8-1.3,18.4c2.5,13.4,5.7,25.4,8.7,36.3c10.9,40.4,18,66.5-28.1,103
	c-4.4,3.5-8.1,6.3-11.4,8.7c-10.3,7.7-15.9,11.9-21.2,21.9c-3.5,6.7-12.2,17.5-25.8,25.5c-9.3,5.4-21.1,9.5-35.1,10.1H176
	c-14.1-0.5-25.8-4.7-35.1-10.1c-13.6-7.9-22.2-18.7-25.8-25.5c-5.3-10-10.9-14.2-21.2-21.9c-3.3-2.4-7-5.2-11.4-8.7
	c-46.1-36.5-39-62.7-28.1-103C57.3,144.7,60.6,132.7,63,119.3L63,119.3z M66.9,98.9c0.8,1.8,3.7,9.8,1.6,21.4
	c-2.5,13.8-5.8,25.8-8.7,36.8c-10.3,38.2-17,63,26.2,97.3c4.3,3.4,8,6.2,11.3,8.6c10.9,8.2,16.9,12.6,22.7,23.8
	c3.2,6.1,11.1,15.9,23.6,23.2c8.6,5,19.5,8.8,32.5,9.3c13-0.5,23.8-4.3,32.5-9.3c12.6-7.3,20.5-17.2,23.6-23.2
	c5.9-11.2,11.8-15.6,22.7-23.8c3.3-2.5,7-5.3,11.3-8.6c43.2-34.2,36.5-59,26.2-97.3c-3-11-6.2-23-8.7-36.8
	c-2.1-11.7,0.8-19.6,1.6-21.4c5.4-25.3-0.5-41.4-9.5-51.4c-3.8-4.2-8.3-7.4-12.6-9.7c-4.3-2.3-8.6-3.7-12.1-4.5
	c-4-0.9-6.5-1.1-6.8-0.9c-0.4,0.4,0.1,1.9,0.7,3.8c1,3,2.2,6.4,1,10.3c-2.1,6.7-15.9,24.6-16,24.6l-1.1,1.5l-1.8-0.5
	c-8.6-2.4-16.2-3-22.9-2.5c-6.8,0.5-12.7,2-17.8,3.7c-1.6,0.5-3.3,0.9-5,1.3c-1.6,0.3-3.3,0.5-5,0.7l-0.3,0l-0.3,0
	c-1.7-0.2-3.4-0.4-5-0.7c-1.7-0.3-3.4-0.7-5-1.3c-5.1-1.7-11-3.2-17.8-3.7c-6.8-0.5-14.4,0.1-22.9,2.5l-1.8,0.5l-1.1-1.5
	c0-0.1-13.9-17.9-16-24.6c-1.2-3.9,0-7.3,1-10.3c0.6-1.8,1.2-3.4,0.7-3.8c-0.3-0.2-2.8,0-6.8,0.9c-3.5,0.8-7.8,2.2-12.1,4.5
	c-4.3,2.3-8.8,5.4-12.6,9.7C67.4,57.5,61.5,73.6,66.9,98.9L66.9,98.9z"/>
<path class="st3" d="M176.1,186.3c-6.4,0.5-17,2.4-26.3,8.9c0,0-1.9,13.7,22.5,29.8c0,0,0.9,8-0.3,12.5c0,0-36.2,27-65.4-3.5
	c0,0,8,26,30.9,35.7c0,0-2,40.8,38.6,39.5c40.6,1.3,38.6-39.5,38.6-39.5c22.9-9.7,30.9-35.7,30.9-35.7c-29.1,30.5-65.4,3.5-65.4,3.5
	c-1.2-4.5-0.3-12.5-0.3-12.5c24.4-16.1,22.5-29.8,22.5-29.8C193.1,188.7,182.5,186.8,176.1,186.3L176.1,186.3z"/>
<path class="st4" d="M176.1,253.8c-6.1-0.9-16.5-1.6-25.3,2c0,0-15.9,47,25.3,47.3c41.1-0.3,25.3-47.3,25.3-47.3
	C192.5,252.3,182.1,252.9,176.1,253.8z"/>
<path class="st5" d="M92.9,47.7c0,0,14.6,18.4,14.6,25.7c0,7.3-14.6,10.8-23.6,11.4C74.8,85.5,73.1,54.9,92.9,47.7z"/>
<path class="st5" d="M259.2,47.7c0,0-14.6,18.4-14.6,25.7c0,7.3,14.6,10.8,23.6,11.4C277.3,85.5,279,54.9,259.2,47.7L259.2,47.7z"/>
<path class="st5" d="M109.8,121.5c0,0,0.3-2.9,2.1-4.2c1.7-1.3,24.4-4.6,29.1,0.1c4.7,4.7,15.9,18.1,8.5,24.9
	c-7.4,6.8-12.1-2.5-15.4-6.1C130.9,132.7,122.7,123,109.8,121.5z M242.3,121.5c0,0-0.3-2.9-2.1-4.2c-1.7-1.3-24.4-4.6-29.1,0.1
	c-4.7,4.7-15.9,18.1-8.5,24.9c7.4,6.8,12.1-2.5,15.4-6.1C221.2,132.7,229.4,123,242.3,121.5z"/>
<g id="_1956974840448">
	<g>
		<path class="st3" d="M256.3,167.1c0,0-4.6-4.6-10.6-10.3c-6-5.7-18.9-9.4-23.1-7.7c-4.2,1.6-13.4,10.9-16.9,22.5
			c0,0,4.2,1.7,6.6,1.8c2.4,0.1,8.6,6.1,17.5,6.8c8.8,0.7,18.3-10.7,18.3-10.7S254.9,169.8,256.3,167.1L256.3,167.1z"/>
		<path class="st6" d="M223.9,156.7c-1.9-0.2-3.6,1.2-3.8,3.1c-0.2,1.9,1.2,3.6,3.1,3.8c1.9,0.2,3.6-1.2,3.8-3.1
			C227.3,158.6,225.9,156.9,223.9,156.7L223.9,156.7z"/>
	</g>
	<g>
		<path class="st3" d="M95.8,167.1c0,0,4.6-4.6,10.6-10.3c6-5.7,18.9-9.4,23.1-7.7c4.2,1.6,13.4,10.9,16.9,22.5c0,0-4.2,1.7-6.6,1.8
			c-2.4,0.1-8.6,6.1-17.5,6.8c-8.8,0.7-18.3-10.7-18.3-10.7S97.2,169.8,95.8,167.1L95.8,167.1z"/>
		<path class="st6" d="M128.2,156.7c1.9-0.2,3.6,1.2,3.8,3.1c0.2,1.9-1.2,3.6-3.1,3.8c-1.9,0.2-3.6-1.2-3.8-3.1
			C124.8,158.6,126.2,156.9,128.2,156.7L128.2,156.7z"/>
	</g>
</g>
</svg>
